{"title":"Ferdinando Show T03E01 Marilia Mendonça 720p WEBRip","magnet":"magnet:?xt=urn:btih:8bd779a8e2c4cb78b157c7a32f1ffbea3de41264&dn=Ferdinando+Show+T03E01+Marilia+Mendon%26ccedil%3Ba+720p+WEBRip&tr=udp%3A%2F%2Ftracker.leechers-paradise.org%3A6969&tr=udp%3A%2F%2Fzer0day.ch%3A1337&tr=udp%3A%2F%2Fopen.demonii.com%3A1337&tr=udp%3A%2F%2Ftracker.coppersurfer.tk%3A6969&tr=udp%3A%2F%2Fexodus.desync.com%3A6969","uploader":"Fuzzco","categoryP":"video","categoryS":"tv_shows","size":"470806040","seeders":"1","leechers":"0","description":"General\r\nFormat                         : MPEG-4\r\nFormat profile                 : Base Media\r\nCodec ID                       : isom (isom/iso2/avc1/mp41)\r\nFile size                      : 449 MiB\r\nDuration                       : 29 min 55 s\r\nOverall bit rate               : 2 097 kb/s\r\nEncoded date                   : UTC 2017-07-25 17:41:17\r\nTagged date                    : UTC 2017-07-25 17:41:17\r\nWriting application            : Lavf57.56.101\r\nComment                        : Encoded by Globo.com\r\n\r\nVideo\r\nID                             : 1\r\nFormat                         : AVC\r\nFormat/Info                    : Advanced Video Codec\r\nFormat profile                 : <a class=\"__cf_email__\" href=\"/cdn-cgi/l/email-protection\" data-cfemail=\"b9f1d0ded1f9f58a9788\">[email&#xA0;protected]</a><script data-cfhash=\"f9e31\" type=\"text/javascript\">/* <![CDATA[ */!function(t,e,r,n,c,a,p){try{t=document.currentScript||function(){for(t=document.getElementsByTagName('script'),e=t.length;e--;)if(t[e].getAttribute('data-cfhash'))return t[e]}();if(t&&(c=t.previousSibling)){p=t.parentNode;if(a=c.getAttribute('data-cfemail')){for(e='',r='0x'+a.substr(0,2)|0,n=2;a.length-n;n+=2)e+='%'+('0'+('0x'+a.substr(n,2)^r).toString(16)).slice(-2);p.replaceChild(document.createTextNode(decodeURIComponent(e)),c)}p.removeChild(t)}}catch(u){}}()/* ]]> */</script>\r\nFormat settings, CABAC         : Yes\r\nFormat settings, ReFrames      : 2 frames\r\nFormat settings, GOP           : M=2, N=30\r\nCodec ID                       : avc1\r\nCodec ID/Info                  : Advanced Video Coding\r\nDuration                       : 29 min 55 s\r\nBit rate                       : 1 961 kb/s\r\nWidth                          : 1 280 pixels\r\nHeight                         : 720 pixels\r\nDisplay aspect ratio           : 16:9\r\nFrame rate mode                : Constant\r\nFrame rate                     : 29.970 (29970/1000) FPS\r\nColor space                    : YUV\r\nChroma subsampling             : 4:2:0\r\nBit depth                      : 8 bits\r\nScan type                      : Progressive\r\nBits/(Pixel*Frame)             : 0.071\r\nStream size                    : 420 MiB (93%)\r\nWriting library                : x264 core 148\r\nEncoding settings              : cabac=1 / ref=2 / deblock=1:0:0 / analyse=0x3:0x113 / me=hex / subme=4 / psy=1 / psy_rd=1.00:0.00 / mixed_ref=0 / me_range=16 / chroma_me=1 / trellis=1 / 8x8dct=1 / cqm=0 / deadzone=21,11 / fast_pskip=1 / chroma_qp_offset=0 / threads=22 / lookahead_threads=5 / sliced_threads=0 / nr=0 / decimate=1 / interlaced=0 / bluray_compat=0 / constrained_intra=0 / bframes=1 / b_pyramid=0 / b_adapt=1 / b_bias=0 / direct=1 / weightb=1 / open_gop=0 / weightp=1 / keyint=30 / keyint_min=16 / scenecut=0 / intra_refresh=0 / rc=2pass / mbtree=0 / bitrate=1961 / ratetol=1.0 / qcomp=0.60 / qpmin=0 / qpmax=69 / qpstep=4 / cplxblur=20.0 / qblur=0.5 / ip_ratio=1.40 / pb_ratio=1.30 / aq=1:1.00\r\nLanguage                       : Portuguese\r\nEncoded date                   : UTC 2017-07-25 17:41:17\r\nTagged date                    : UTC 2017-07-25 17:41:17\r\n\r\nAudio\r\nID                             : 2\r\nFormat                         : AAC\r\nFormat/Info                    : Advanced Audio Codec\r\nFormat profile                 : LC\r\nCodec ID                       : 40\r\nDuration                       : 29 min 55 s\r\nDuration_LastFrame             : -13 ms\r\nBit rate mode                  : Constant\r\nBit rate                       : 128 kb/s\r\nChannel(s)                     : 2 channels\r\nChannel positions              : Front: L R\r\nSampling rate                  : 44.1 kHz\r\nFrame rate                     : 43.066 FPS (1024 spf)\r\nCompression mode               : Lossy\r\nStream size                    : 27.4 MiB (6%)\r\nLanguage                       : Portuguese\r\nDefault                        : Yes\r\nAlternate group                : 1\r\nEncoded date                   : UTC 2017-07-25 17:41:17\r\nTagged date                    : UTC 2017-07-25 17:41:17","last_updated":"2017-08-10T12:04:54.625Z","parsed":{"xt":"urn:btih:8bd779a8e2c4cb78b157c7a32f1ffbea3de41264","dn":"Ferdinando Show T03E01 Marilia Mendon&ccedil;a 720p WEBRip","tr":["udp://exodus.desync.com:6969","udp://open.demonii.com:1337","udp://tracker.coppersurfer.tk:6969","udp://tracker.leechers-paradise.org:6969","udp://zer0day.ch:1337"],"infoHash":"8bd779a8e2c4cb78b157c7a32f1ffbea3de41264","infoHashBuffer":{"type":"Buffer","data":[139,215,121,168,226,196,203,120,177,87,199,163,47,31,251,234,61,228,18,100]},"name":"Ferdinando Show T03E01 Marilia Mendon&ccedil;a 720p WEBRip","announce":["udp://exodus.desync.com:6969","udp://open.demonii.com:1337","udp://tracker.coppersurfer.tk:6969","udp://tracker.leechers-paradise.org:6969","udp://zer0day.ch:1337"],"urlList":[]}}